{"title":"The.Comic.Strip.Complete.Collection.D9.Extras.DVDRip.x264.Iou1","uid":8572032,"size":1062233847,"categoryP":"video","categoryS":"tv_shows","magnet":"?xt=urn:btih:9cb5b788d24c4ac6f6ff8f8ec5bc1cc88c267f7a&amp;dn=The.Comic.Strip.Complete.Collection.D9.Extras.DVDRip.x264.Iou1&amp;tr=udp%3A%2F%2Ftracker.openbittorrent.com%3A80&amp;tr=udp%3A%2F%2Fopen.demonii.com%3A1337&amp;tr=udp%3A%2F%2Ftracker.coppersurfer.tk%3A6969&amp;tr=udp%3A%2F%2Fexodus.desync.com%3A6969","seeders":1,"leechers":2,"uploader":"jaybee211","files":-1,"time":1371178360,"description":"Disc 9 Of 9 Extras\n\nFirst On Four Pt 1                       : 720x550 25m 11s\nFirst On Four Pt 2                       : 720x552 24m 37s\nThe Comic Strip 1981                     : 720x554 29m 11s \nThe Comic Strip A Retrospective 2005     : 720x406 53m 03s\n\nNote. Video/Audio Bitrate varies slightly in all 4 clips\n\nFormat                                   : MPEG-4\nFile size                                : 0.98 GiB\nDuration                                 : 2h 12mn 03s\nOverall bit rate mode                    : Variable\nOverall bit rate                         : 1 070 Kbps\n\nVideo\nFormat settings, CABAC                   : Yes\nFormat settings, ReFrames                : 1 frame\nCodec ID                                 : avc1\nDuration                                 : 2h 12mn 03s\nBit rate mode                            : Variable\nBit rate                                 : 995 Kbps\nFrame rate mode                          : Constant\nFrame rate                               : 25.000 fps\nBit depth                                : 8 bits\nScan type                                : Progressive\nBits/(Pixel*Frame)                       : 0.100\nStream size                              : 911 MiB (93%)\nWriting library                          : x264 core\n\nAudio\nFormat                                   : AAC\nDuration                                 : 2h 12mn 03s\nBit rate mode                            : Variable\nBit rate                                 : 72.0 Kbps\nMaximum bit rate                         : 85.8 Kbps\nChannel(s)                               : 2 channels\nChannel positions                        : Front: L R\nSampling rate                            : 48.0 KHz\nCompression mode                         : Lossy\nStream size                              : 69 MiB (7%)\nLanguage                                 : English\nSubtitles                                : None\n\nIMDB. &lt;a href=&quot; http://www.imdb.com/title/tt0083402/&quot; rel=&quot;nofollow&quot; target=&quot;_NEW&quot;&gt; http://www.imdb.com/title/tt0083402/&lt;/a&gt;\n\nScreens. &lt;a href=&quot; http://bayimg.com/iANokAAeD&quot; rel=&quot;nofollow&quot; target=&quot;_NEW&quot;&gt; http://bayimg.com/iANokAAeD&lt;/a&gt;\n\n         &lt;a href=&quot; http://bayimg.com/IaNooaAED&quot; rel=&quot;nofollow&quot; target=&quot;_NEW&quot;&gt; http://bayimg.com/IaNooaAED&lt;/a&gt;\n\n         &lt;a href=&quot; http://bayimg.com/IAnoPAaEd&quot; rel=&quot;nofollow&quot; target=&quot;_NEW&quot;&gt; http://bayimg.com/IAnoPAaEd&lt;/a&gt;\n\n         &lt;a href=&quot; http://bayimg.com/jAnocaAed&quot; rel=&quot;nofollow&quot; target=&quot;_NEW&quot;&gt; http://bayimg.com/jAnocaAed&lt;/a&gt;      \n\nEnjoy.","torrent":{"xt":"urn:btih:9cb5b788d24c4ac6f6ff8f8ec5bc1cc88c267f7a","amp;dn":"The.Comic.Strip.Complete.Collection.D9.Extras.DVDRip.x264.Iou1","amp;tr":["udp%3A%2F%2Ftracker.openbittorrent.com%3A80","udp%3A%2F%2Fopen.demonii.com%3A1337","udp%3A%2F%2Ftracker.coppersurfer.tk%3A6969","udp%3A%2F%2Fexodus.desync.com%3A6969"],"infoHash":"9cb5b788d24c4ac6f6ff8f8ec5bc1cc88c267f7a","infoHashBuffer":{"type":"Buffer","data":[156,181,183,136,210,76,74,198,246,255,143,142,197,188,28,200,140,38,127,122]},"announce":[],"urlList":[]}}